<?xml version="1.0" encoding="UTF-8"?>
<svg width="254px" height="53px" viewBox="0 0 254 53" version="1.1" xmlns="http://www.w3.org/2000/svg" xmlns:xlink="http://www.w3.org/1999/xlink">
    <!-- Generator: Sketch 48.1 (47250) - http://www.bohemiancoding.com/sketch -->
    <title>element/playsport-logo</title>
    <desc>Created with Sketch.</desc>
    <defs></defs>
    <g id="Home-Border" stroke="none" stroke-width="1" fill="none" fill-rule="evenodd" transform="translate(-593.000000, -55.000000)">
        <g id="element/playsport-logo" transform="translate(593.000000, 55.000000)" fill="#4A4A4A">
            <path d="M137.043637,35.7819587 L137.043637,18.0312808 L148.076638,18.0312808 C149.622608,18.0312808 151.423336,17.9135148 153.057855,17.0404473 C154.70326,16.1848265 155.728826,14.2445955 155.728826,11.9786907 C155.728826,9.67425758 154.712696,7.86196993 152.941,7.00562221 C151.330433,6.14491279 149.508656,6.024239 147.783411,6.024239 L137.043637,6.024239 L137.043637,0.684787394 L147.442282,0.684787394 C153.47592,0.684787394 155.792697,1.55785497 157.755281,3.06700426 C160.186736,5.0515792 161.645609,8.35048068 161.645609,11.8812794 C161.645609,15.3517412 160.195446,18.8578236 158.036894,20.6061396 C155.852939,22.4002535 153.643581,23.3707324 148.222525,23.3707324 L143.253647,23.3707324 L143.253647,35.7819587 L137.043637,35.7819587 Z M182.471277,36.4660919 C172.181504,36.4660919 164.121411,28.6070297 164.121411,18.5758395 C164.121411,7.96454265 172.030536,7.26950525e-05 182.520632,7.26950525e-05 C192.865566,7.26950525e-05 200.968482,8.00888663 200.968482,18.2327188 C200.968482,28.4572779 192.843792,36.4660919 182.471277,36.4660919 Z M239.790765,35.7819587 L239.790765,6.024239 L231.984705,6.024239 L231.984705,0.684787394 L253.757479,0.684787394 L253.757479,6.024239 L246.000774,6.024239 L246.000774,35.7819587 L239.790765,35.7819587 Z M121.78005,36.4660192 C118.015287,36.4660192 114.939314,35.3705047 112.884553,33.2979688 C111.022131,31.4202556 110.003823,28.7683401 109.923259,25.6046514 L116.115848,25.6046514 C116.650769,31.2516031 121.156582,31.4195286 121.682792,31.4195286 C124.691264,31.4195286 127.139413,29.0329501 127.139413,26.1004316 C127.139413,22.8829486 124.690539,21.9153775 120.243516,20.159065 L119.194724,19.7439763 C116.358994,18.7291533 110.503179,16.6348089 110.503179,10.1707648 C110.503179,3.56496537 116.388752,0 121.926663,0 C126.657477,0 132.253453,2.49998285 132.782567,9.4932469 L126.611751,9.4932469 C126.30546,7.94993094 125.435217,5.04721749 121.682792,5.04721749 C118.84924,5.04721749 116.713188,7.03978888 116.713188,9.68225404 C116.660204,12.6002334 118.725127,13.458762 124.243441,15.7530179 L125.040378,16.0845073 C130.136998,18.2980717 133.300793,20.6897389 133.300793,25.7580379 C133.300793,30.9346526 130.274176,36.4660192 121.78005,36.4660192 Z M225.169372,20.6058488 C223.789612,21.7398916 222.396787,22.5438989 220.19251,22.982977 L228.596635,35.7475013 L220.940092,35.7475013 L212.958386,23.3711686 L210.385399,23.3711686 L210.385399,35.781668 L204.176115,35.781668 L204.176115,18.03099 L209.51443,18.03099 L216.519924,17.9895539 C217.724038,17.9088623 219.000734,17.6755112 220.190332,17.0401565 C221.835738,16.1845357 222.861304,14.2450317 222.861304,11.9784 C222.861304,9.67469375 221.845174,7.8624061 220.073477,7.00605838 C218.462911,6.14462201 216.641134,6.02467517 214.915889,6.02467517 L204.176115,6.02467517 L204.176115,0.684496614 L214.57476,0.684496614 C220.608398,0.684496614 222.924449,1.55829115 224.887033,3.06671348 C227.319214,5.05201537 228.778087,8.3501899 228.778087,11.8809886 C228.778087,15.3514504 227.327924,18.8575328 225.169372,20.6058488 Z M27.8577991,35.7819587 L27.8577991,0.684787394 L34.0678083,0.684787394 L34.0678083,30.4417802 L45.9950032,30.4417802 L42.4603206,35.7819587 L27.8577991,35.7819587 Z M91.9641677,35.7819587 L91.9641677,23.2435161 L81.1997164,0.684787394 L87.8619036,0.684787394 L95.0430432,17.9469546 L102.275715,0.684787394 L108.890725,0.684787394 L98.1741769,23.244243 L98.1741769,35.7819587 L91.9641677,35.7819587 Z M0,35.7819587 L0,18.0312808 L11.0322743,18.0312808 C12.5789701,18.0312808 14.3796986,17.9135148 16.0142171,17.0404473 C17.6596228,16.1848265 18.6851888,14.2445955 18.6851888,11.9786907 C18.6851888,9.67425758 17.6690583,7.86196993 15.8973621,7.00562221 C14.2867952,6.14491279 12.4650184,6.024239 10.7397739,6.024239 L0,6.024239 L0,0.684787394 L10.3986444,0.684787394 C16.4322823,0.684787394 18.7490599,1.55785497 20.7109176,3.06700426 C23.1430986,5.0515792 24.6019717,8.35048068 24.6019717,11.8812794 C24.6019717,15.3517412 23.1518083,18.8578236 20.9932567,20.6061396 C18.8093019,22.4002535 16.599218,23.3707324 11.1788874,23.3707324 L6.21000915,23.3707324 L6.21000915,35.7819587 L0,35.7819587 Z M71.9010333,35.7472105 L71.9010333,6.8720087 L53.0438281,35.7472105 L45.3872846,35.7472105 L68.4498186,0.719099459 L78.2017684,0.719099459 L78.2017684,35.7472105 L71.9010333,35.7472105 Z M99.2159284,48.3751408 C99.0838315,48.1737755 98.9263312,47.98913 98.7332664,47.8408321 C98.4008466,47.5769491 97.9893137,47.4104774 97.4892323,47.4104774 C96.4469727,47.4104774 95.3865679,48.1999457 95.3865679,49.6131375 C95.3865679,51.0779428 96.4556824,51.8506912 97.4892323,51.8506912 C98.0060073,51.8506912 98.4451208,51.7023933 98.7775407,51.4552301 C99.119396,51.2109748 99.3472996,50.8598577 99.4431062,50.472393 L97.0247155,50.472393 L97.0247155,49.4190417 L100.949883,49.4190417 C100.968754,49.8493964 100.90706,50.5094675 100.661737,51.0524995 C100.057139,52.4046275 98.6635889,53 97.4986678,53 C95.5614876,53 94.0801144,51.4995741 94.0801144,49.6131375 C94.0801144,47.6729066 95.6224554,46.2597147 97.5153614,46.2597147 C98.9785894,46.2597147 100.267624,47.1909384 100.687866,48.3751408 L99.2159284,48.3751408 Z M111.028954,52.8776542 L109.61,52.8776542 L112.238149,46.3830782 L113.386377,46.3830782 L115.953558,52.8776542 L114.525169,52.8776542 L114.052668,51.6047639 L111.494197,51.6047639 L111.028954,52.8776542 Z M125.393193,52.8777269 L125.393193,46.3831509 L127.154728,46.3831509 L128.819004,51.0429038 L130.457878,46.3831509 L132.228122,46.3831509 L132.228122,52.8777269 L131.018201,52.8777269 L131.053766,47.6727612 L129.239247,52.8777269 L128.381342,52.8777269 L126.55884,47.6727612 L126.594404,52.8777269 L125.393193,52.8777269 Z M142.21008,46.3834417 L145.847828,46.3834417 L145.847828,47.5327505 L143.515808,47.5327505 L143.515808,49.0070062 L145.803554,49.0070062 L145.803554,50.1577688 L143.515808,50.1577688 L143.515808,51.7287089 L145.847828,51.7287089 L145.847828,52.8780177 L142.21008,52.8780177 L142.21008,46.3834417 Z M156.584844,50.8601484 C156.627666,51.7361238 157.216296,51.9040494 157.496458,51.9040494 C157.994362,51.9040494 158.380491,51.4991379 158.380491,51.042613 C158.380491,50.4908576 157.9167,50.3498292 157.01307,49.9899887 C156.522424,49.8147936 155.393068,49.411336 155.393068,48.1827897 C155.393068,46.9360695 156.487585,46.2600055 157.538555,46.2600055 C158.398637,46.2600055 159.536703,46.7179843 159.590413,48.1551655 L158.300653,48.1551655 C158.24912,47.8578428 158.134443,47.3569739 157.496458,47.3569739 C157.06678,47.3569739 156.69807,47.6564775 156.69807,48.0941017 C156.688634,48.5767968 157.039199,48.7003784 158.134443,49.1569034 C159.12517,49.5872581 159.676784,50.0597759 159.676784,50.9822761 C159.676784,52.0261771 159.038073,52.9995638 157.513151,52.9995638 C156.040488,52.9995638 155.279116,52.114865 155.286374,50.8601484 L156.584844,50.8601484 Z M182.569261,5.34025125 C176.63651,5.34025125 170.330694,9.8415289 170.330694,18.1840131 C170.330694,25.5836425 175.613122,31.1259133 182.61789,31.1259133 C190.217821,31.1259133 194.758472,24.5957168 194.758472,18.2821514 C194.758472,11.9206074 190.199675,5.34025125 182.569261,5.34025125 Z M112.75565,47.9278481 L111.835326,50.5608629 L113.702103,50.5608629 L112.75565,47.9278481 Z" id="Combined-Shape"></path>
        </g>
    </g>
</svg>